<?xml version="1.0" standalone="no"?>
<!DOCTYPE svg PUBLIC "-//W3C//DTD SVG 20010904//EN"
 "http://www.w3.org/TR/2001/REC-SVG-20010904/DTD/svg10.dtd">
<svg version="1.0" xmlns="http://www.w3.org/2000/svg"
 width="323.000000pt" height="315.000000pt" viewBox="0 0 323.000000 315.000000"
 preserveAspectRatio="xMidYMid meet">

<g transform="translate(0.000000,315.000000) scale(0.100000,-0.100000)"
fill="#000000" stroke="none">
<path d="M107 3116 c15 -18 60 -50 98 -71 39 -20 57 -34 41 -30 -50 11 -114
46 -147 79 -22 23 -38 32 -52 28 -10 -3 -23 1 -27 9 -13 21 -23 3 -11 -19 6
-12 7 -31 2 -50 -6 -19 -6 -32 0 -34 16 -5 17 -107 2 -120 -10 -8 -13 -293
-13 -1459 l0 -1449 1239 0 c982 0 1240 3 1244 13 4 9 6 9 6 0 1 -8 16 -13 40
-13 60 0 103 11 97 25 -3 8 10 14 37 18 49 7 55 3 39 -23 -12 -20 -8 -20 258
-20 l270 0 0 108 c-1 74 -5 115 -15 132 -8 14 -15 39 -15 55 0 19 -3 25 -8 17
-10 -14 -52 37 -52 63 0 8 -6 24 -12 35 -10 16 -10 24 0 40 10 17 9 27 -8 62
-20 43 -25 70 -14 81 4 4 9 32 11 64 2 32 5 69 7 83 4 37 38 105 89 182 22 31
22 148 1 176 -7 9 -14 23 -14 31 0 11 4 9 15 -5 13 -17 14 4 15 193 l0 212
-57 -6 c-32 -3 -55 -2 -51 2 4 4 29 9 55 12 26 2 48 5 50 7 2 1 2 353 1 781
l-3 778 -33 -28 c-27 -22 -39 -26 -66 -21 -37 7 -54 -11 -29 -29 12 -9 12 -16
2 -38 -7 -15 -15 -27 -18 -27 -9 0 -81 -66 -81 -73 0 -4 9 -7 20 -7 15 0 20
-7 20 -25 0 -21 -5 -25 -29 -25 -17 0 -32 -4 -35 -9 -11 -18 -76 -10 -87 10
-5 10 -15 19 -22 19 -13 0 -17 93 -4 106 14 14 7 46 -12 51 -12 3 -21 17 -25
41 -5 32 -2 40 22 59 15 12 33 22 40 23 6 0 12 5 12 10 0 7 -180 10 -521 10
-416 0 -519 -3 -511 -12 14 -18 12 -70 -2 -65 -6 2 -12 20 -14 40 -3 38 -18
47 -40 25 -7 -7 -27 -12 -45 -13 -24 0 -31 -4 -29 -16 3 -19 -21 -31 -44 -22
-12 4 -13 7 -3 14 16 9 12 14 -18 23 -19 6 -23 3 -23 -13 0 -12 -7 -21 -15
-21 -9 0 -15 -9 -15 -24 0 -13 -6 -26 -14 -29 -18 -7 -26 1 -26 28 0 19 -6 22
-44 23 -25 0 -52 -5 -62 -12 -24 -18 -61 -8 -89 26 -29 35 -54 29 -31 -7 13
-19 13 -30 4 -57 -6 -18 -15 -37 -21 -43 -7 -7 -8 -6 -3 2 3 6 -6 21 -20 32
-19 15 -24 26 -19 38 10 25 12 83 3 83 -5 0 -8 -7 -8 -15 0 -8 -4 -15 -10 -15
-5 0 -10 7 -10 15 0 11 -12 15 -50 15 -33 0 -50 -4 -50 -12 0 -9 -4 -8 -10 2
-9 13 -11 13 -20 0 -5 -8 -10 -21 -10 -27 0 -7 -4 -13 -10 -13 -5 0 -10 11
-10 25 0 20 -5 25 -25 25 -21 0 -25 -5 -25 -30 0 -16 -4 -30 -10 -30 -5 0 -10
14 -10 30 0 17 -4 30 -10 30 -5 0 -10 -16 -10 -36 0 -21 -4 -33 -10 -29 -6 3
-10 19 -10 36 0 24 -4 29 -24 29 -31 0 -42 -16 -20 -28 19 -10 11 -32 -12 -32
-9 0 -14 11 -14 30 0 27 -3 30 -30 30 -16 0 -30 -5 -30 -11 0 -5 4 -7 10 -4 6
3 10 -5 10 -19 0 -14 -5 -28 -11 -31 -6 -4 -8 -13 -5 -20 7 -19 -5 -27 -21
-14 -18 15 -17 39 2 39 8 0 15 5 15 10 0 15 -26 12 -40 -5 -6 -8 -12 -30 -13
-50 -1 -19 -4 -35 -8 -35 -10 0 -21 34 -17 51 2 7 -10 15 -27 19 -26 5 -30 10
-29 38 l2 32 -59 0 c-48 0 -57 -3 -53 -15 4 -8 3 -27 -1 -43 -7 -27 -7 -27
-16 -4 -4 12 -13 22 -19 22 -14 0 -13 27 3 33 6 3 -6 6 -29 6 -33 1 -43 -3
-52 -21 -18 -39 -23 -66 -12 -73 5 -3 10 -1 10 5 0 6 5 8 10 5 14 -8 13 -25
-1 -25 -7 0 -18 -8 -25 -17 -12 -16 -13 -13 -14 27 l0 45 -44 -46 c-44 -47
-94 -67 -136 -54 -28 9 -25 25 5 25 69 0 132 55 119 104 -5 22 -12 26 -40 26
-24 0 -34 -5 -34 -15 0 -8 -4 -15 -10 -15 -5 0 -10 7 -10 16 0 12 -10 14 -49
12 -43 -3 -50 -6 -48 -23 3 -29 -24 -29 -55 0 -19 17 -38 25 -64 25 l-36 0 29
-34z m1713 -22 c0 -8 -4 -14 -9 -14 -11 0 -22 26 -14 34 9 9 23 -3 23 -20z
m-46 -9 c3 -9 0 -15 -9 -15 -8 0 -15 7 -15 15 0 8 4 15 9 15 5 0 11 -7 15 -15z
m-1175 -22 c0 -25 -1 -26 -9 -8 -12 27 -12 35 0 35 6 0 10 -12 9 -27z m532
-21 c-6 -2 -11 -15 -11 -29 0 -14 -8 -32 -17 -39 -39 -30 -40 -14 -1 74 20 45
21 46 30 22 6 -16 5 -26 -1 -28z m543 -2 c-7 -7 -16 -5 -28 3 -18 13 -18 14 0
31 17 18 18 18 28 -3 6 -14 6 -25 0 -31z m-1424 15 c0 -8 -4 -15 -9 -15 -5 0
-11 7 -15 15 -3 9 0 15 9 15 8 0 15 -7 15 -15z m716 -22 c-3 -4 0 -13 6 -21
10 -11 8 -17 -7 -28 -10 -8 -26 -14 -36 -14 -21 0 -34 29 -19 44 5 5 10 18 10
27 0 22 32 30 43 11 5 -7 6 -16 3 -19z m-272 -8 c22 4 47 14 53 23 16 20 24
13 17 -15 -3 -12 -17 -24 -30 -27 -13 -4 -24 -11 -24 -17 0 -6 -8 -8 -19 -4
-12 3 -21 0 -25 -10 -3 -9 -10 -14 -16 -10 -14 9 -48 -11 -117 -71 -33 -30
-65 -54 -70 -54 -4 0 3 9 17 20 l25 20 -65 -5 c-65 -5 -70 -2 -17 9 15 4 27
13 27 20 0 19 20 25 47 13 17 -7 30 -5 57 13 40 24 46 40 17 40 -21 0 -37 17
-27 28 4 3 16 0 28 -7 17 -11 22 -11 29 0 6 11 11 11 20 2 6 -6 18 -9 25 -6
11 4 10 11 -6 33 -11 15 -20 32 -20 36 0 5 7 -2 16 -14 14 -20 22 -23 58 -17z
m354 -20 c-1 -37 -6 -55 -15 -56 -7 -1 -19 -2 -25 -3 -7 -1 -15 -4 -18 -8 -7
-10 -50 2 -50 13 0 5 9 9 19 9 32 0 50 11 44 26 -3 8 4 24 16 35 11 11 21 24
21 29 0 6 2 10 5 10 2 0 4 -25 3 -55z m442 38 c0 -5 -4 -14 -9 -22 -6 -10 -10
-10 -16 -1 -4 6 -13 9 -21 6 -7 -3 -16 -1 -19 4 -5 8 15 15 53 19 6 0 12 -2
12 -6z m65 -2 c6 -11 -1 -16 -37 -25 -34 -8 -38 11 -5 24 29 12 35 12 42 1z
m-356 -67 c17 -35 35 -50 84 -70 20 -9 37 -20 37 -25 0 -13 -44 -11 -57 2 -5
5 -23 11 -39 13 -19 2 -29 9 -29 20 0 20 -23 36 -42 29 -7 -3 -13 1 -13 10 0
8 6 18 13 20 7 3 4 6 -7 6 -12 1 -16 6 -12 17 3 9 6 20 6 26 0 18 44 -18 59
-48z m-1011 18 c3 -21 2 -22 -17 -10 -25 16 -28 41 -3 36 9 -2 18 -14 20 -26z
m664 -28 c-11 -19 -4 -56 9 -49 13 9 49 -27 49 -48 0 -16 -6 -18 -35 -15 -26
3 -34 1 -31 -9 3 -7 1 -15 -5 -18 -5 -4 -12 2 -15 12 -3 10 -11 29 -17 42 -10
19 -8 25 7 36 17 13 17 15 2 30 -22 22 -20 30 12 55 l27 22 3 -21 c2 -11 -1
-28 -6 -37z m568 16 c-6 -11 -13 -20 -15 -20 -3 0 -5 9 -5 20 0 11 7 20 15 20
13 0 14 -4 5 -20z m-1253 -19 c8 -13 9 -29 3 -50 -7 -26 -6 -31 8 -31 10 0 28
7 40 16 26 18 41 12 23 -10 -20 -24 -59 -28 -86 -9 -26 19 -51 76 -40 93 10
16 39 11 52 -9z m163 -1 c0 -6 -7 -13 -15 -16 -8 -4 -15 -12 -15 -20 0 -8 -4
-14 -10 -14 -14 0 -13 8 8 35 18 26 32 32 32 15z m1029 -14 c13 -16 4 -49 -13
-43 -14 4 -21 57 -8 57 5 0 15 -6 21 -14z m-409 -26 c0 -5 -9 -10 -20 -10 -11
0 -20 5 -20 10 0 6 9 10 20 10 11 0 20 -4 20 -10z m174 -108 c44 -34 56 -48
43 -50 -21 -4 -114 82 -140 130 l-18 33 27 -33 c16 -19 55 -55 88 -80z m18 50
c7 -10 33 -32 58 -51 32 -24 38 -31 20 -26 -14 4 -50 32 -80 62 -30 30 -45 50
-33 44 12 -6 28 -19 35 -29z m-522 -7 c-7 -9 -15 -13 -18 -10 -3 2 1 11 8 20
7 9 15 13 18 10 3 -2 -1 -11 -8 -20z m-545 -15 c-3 -5 -10 -10 -16 -10 -5 0
-9 5 -9 10 0 6 7 10 16 10 8 0 12 -4 9 -10z m731 -5 c-6 -16 30 -55 51 -55 7
0 13 9 13 21 0 30 24 18 28 -15 3 -21 7 -26 23 -21 13 4 19 2 19 -9 0 -9 14
-22 30 -31 17 -9 30 -17 30 -19 0 -3 3 -12 7 -22 5 -14 3 -16 -12 -11 -9 4
-24 2 -31 -4 -9 -7 -14 -8 -14 -1 0 22 -31 21 -39 -1 -8 -20 -10 -20 -16 -4
-11 27 2 49 25 42 14 -5 20 -2 20 9 0 11 -9 16 -30 16 -23 0 -33 -6 -42 -25
-13 -30 -32 -28 -36 3 -2 14 -13 24 -28 28 -19 5 -22 9 -13 20 6 8 15 11 20 8
5 -3 9 0 9 6 0 8 -9 10 -24 6 -25 -6 -51 14 -28 22 7 2 12 12 12 21 0 20 8 31
23 31 5 0 7 -7 3 -15z m268 -57 c-3 -10 0 -26 5 -37 6 -11 7 -22 3 -25 -4 -2
-7 -30 -5 -60 1 -31 -2 -56 -7 -56 -6 0 -11 19 -11 43 -1 23 -3 67 -5 97 -4
66 2 92 16 70 5 -8 7 -23 4 -32z m1769 13 c-8 -33 -20 -41 -60 -41 -38 0 -38
1 -18 40 13 24 21 29 50 28 32 -1 34 -3 28 -27z m-2113 -7 c0 -8 -4 -12 -10
-9 -5 3 -10 10 -10 16 0 5 5 9 10 9 6 0 10 -7 10 -16z m-127 -14 c3 -11 1 -23
-4 -26 -5 -3 -9 6 -9 20 0 31 6 34 13 6z m-448 -30 c-5 -8 -11 -8 -17 -2 -6 6
-7 16 -3 22 5 8 11 8 17 2 6 -6 7 -16 3 -22z m2825 11 c0 -16 -27 -31 -44 -25
-15 6 -15 8 1 20 21 15 43 18 43 5z m-1820 -32 c0 -11 -4 -17 -10 -14 -5 3
-10 13 -10 21 0 8 5 14 10 14 6 0 10 -9 10 -21z m1519 15 c17 -4 31 -12 31
-19 0 -6 9 -20 21 -31 20 -18 22 -18 34 -1 6 9 22 17 34 17 11 0 21 4 21 8 0
12 69 32 75 22 3 -4 -5 -11 -18 -14 -12 -3 -29 -10 -37 -16 -13 -8 -13 -11 3
-22 18 -13 20 -28 15 -78 -2 -20 2 -26 21 -28 21 -3 23 -7 17 -50 -6 -41 -14
-54 -63 -99 -60 -55 -89 -65 -163 -57 -25 3 -60 6 -77 7 -31 2 -33 4 -35 42
-1 22 -1 53 0 69 2 16 -4 39 -12 51 -14 21 -13 25 15 51 32 30 38 59 14 68
-22 8 -19 20 14 55 30 33 39 35 90 25z m-2069 -34 c0 -5 -4 -10 -10 -10 -5 0
-10 5 -10 10 0 6 5 10 10 10 6 0 10 -4 10 -10z m200 2 c0 -13 -12 -22 -22 -16
-10 6 -1 24 13 24 5 0 9 -4 9 -8z m350 -37 c0 -8 -4 -15 -10 -15 -5 0 -10 7
-10 15 0 8 5 15 10 15 6 0 10 -7 10 -15z m700 -5 c0 -13 37 -13 45 0 4 6 15 6
31 0 13 -5 30 -9 37 -7 8 1 11 -9 9 -31 -3 -44 34 -127 62 -140 25 -11 40 -65
51 -183 l6 -67 26 24 c31 29 40 30 40 7 -1 -63 4 -87 13 -73 13 21 12 -4 -4
-103 -9 -55 -19 -85 -34 -100 l-22 -21 -1 24 c0 22 -1 23 -8 5 -8 -19 -8 -19
-19 0 -9 16 -13 18 -23 8 -10 -10 -10 -13 -1 -13 8 0 9 -11 5 -32 -9 -45 -41
-136 -42 -118 -1 14 -91 -73 -91 -88 0 -4 -13 -13 -30 -20 -16 -8 -28 -19 -27
-25 1 -7 -6 -10 -18 -8 -11 2 -71 4 -134 5 -78 2 -116 6 -119 14 -2 7 -11 12
-21 12 -21 0 -101 67 -101 85 0 7 10 19 22 27 21 14 22 18 9 41 -20 37 -7 70
34 90 20 9 33 22 30 27 -4 6 -12 6 -23 0 -9 -5 -35 -16 -56 -25 -30 -12 -37
-18 -28 -27 18 -18 14 -38 -8 -38 -10 0 -24 10 -31 21 -8 15 -8 19 0 15 6 -4
11 -2 11 3 0 6 -4 11 -10 11 -5 0 -10 12 -10 26 0 14 -4 22 -10 19 -6 -4 -7 6
-3 26 5 27 4 31 -10 26 -11 -4 -17 -1 -17 7 0 8 -3 23 -7 33 -6 16 -5 16 10 4
16 -13 25 -2 10 13 -5 4 -9 33 -10 64 -1 31 -3 83 -6 115 -2 31 0 57 4 57 5 0
9 -9 9 -20 0 -19 5 -20 77 -16 56 4 79 9 85 21 5 8 14 13 19 10 5 -4 7 -11 4
-16 -6 -8 15 -12 32 -6 7 2 5 38 -2 45 -2 2 -20 5 -41 7 -21 2 -40 8 -42 14
-2 6 -8 9 -13 6 -4 -3 -19 1 -32 10 -14 9 -32 13 -42 9 -13 -5 -16 -3 -13 7 6
20 95 23 146 6 50 -18 74 -7 49 21 -20 22 -121 47 -166 40 -16 -2 -28 0 -25 4
3 5 8 28 11 51 2 23 10 48 17 55 20 20 82 31 141 25 31 -3 68 0 91 8 21 7 52
12 67 10 15 -1 34 3 42 9 8 7 22 10 30 6 9 -3 13 -2 10 4 -3 6 -1 10 4 10 6 0
11 -4 11 -10z m-1255 -10 c3 -5 1 -10 -4 -10 -6 0 -11 5 -11 10 0 6 2 10 4 10
3 0 8 -4 11 -10z m2465 -15 c0 -21 -41 -36 -58 -22 -11 9 -11 13 4 24 24 18
54 16 54 -2z m-2210 -11 c0 -8 -4 -12 -10 -9 -5 3 -10 10 -10 16 0 5 5 9 10 9
6 0 10 -7 10 -16z m-720 -4 c0 -5 7 -10 16 -10 8 0 12 -4 9 -10 -10 -16 -23
-12 -35 10 -7 14 -7 20 0 20 5 0 10 -4 10 -10z m357 -12 c-3 -8 -6 -5 -6 6 -1
11 2 17 5 13 3 -3 4 -12 1 -19z m380 -25 c-15 -15 -47 -12 -47 5 0 12 54 30
59 19 2 -5 -4 -16 -12 -24z m283 21 c0 -8 -4 -12 -10 -9 -5 3 -10 10 -10 16 0
5 5 9 10 9 6 0 10 -7 10 -16z m-550 -14 c0 -5 -5 -10 -11 -10 -5 0 -7 5 -4 10
3 6 8 10 11 10 2 0 4 -4 4 -10z m470 -11 c0 -6 7 -8 17 -5 15 6 15 5 -1 -13
-15 -16 -17 -31 -13 -66 4 -38 2 -45 -10 -41 -8 3 -17 6 -19 6 -3 0 -2 5 1 10
3 6 1 10 -4 10 -6 0 -11 5 -11 10 0 6 7 10 16 10 12 0 14 4 7 13 -8 9 -11 62
-4 75 4 7 21 0 21 -9z m-43 -15 c-3 -3 -12 -4 -19 -1 -8 3 -5 6 6 6 11 1 17
-2 13 -5z m128 -12 c0 -18 -20 -15 -23 4 -3 10 1 15 10 12 7 -3 13 -10 13 -16z
m1235 8 c11 -7 12 -14 3 -32 -51 -107 -54 -116 -41 -137 10 -17 10 -25 0 -41
-6 -11 -12 -29 -12 -40 0 -11 -8 -23 -17 -26 -10 -3 -31 -12 -46 -21 -17 -9
-39 -12 -57 -8 -24 5 -29 3 -33 -17 -4 -22 -4 -21 -3 2 0 28 -13 55 -31 61 -8
3 -3 23 14 64 14 33 28 78 32 100 7 42 18 47 66 32 16 -5 26 3 48 33 28 40 49
48 77 30z m-1528 -60 c4 0 8 -7 8 -15 0 -8 -4 -15 -10 -15 -5 0 -10 7 -10 15
0 8 -9 19 -19 25 -13 7 -17 16 -13 32 5 21 6 20 20 -10 9 -18 19 -32 24 -32z
m-262 30 c0 -5 -4 -10 -10 -10 -5 0 -10 5 -10 10 0 6 5 10 10 10 6 0 10 -4 10
-10z m-240 -24 c0 -3 -4 -8 -10 -11 -5 -3 -10 -1 -10 4 0 6 5 11 10 11 6 0 10
-2 10 -4z m140 -17 c0 -5 -4 -9 -10 -9 -5 0 -10 7 -10 16 0 8 5 12 10 9 6 -3
10 -10 10 -16z m1930 -36 c-1 -5 -7 -19 -15 -33 -12 -22 -14 -23 -20 -7 -9 23
1 47 20 47 8 0 15 -3 15 -7z m-1910 -24 c0 -5 -4 -9 -10 -9 -5 0 -10 7 -10 16
0 8 5 12 10 9 6 -3 10 -10 10 -16z m-160 -9 c0 -13 -5 -18 -15 -14 -8 4 -15
12 -15 20 0 8 7 14 15 14 8 0 15 -9 15 -20z m90 -5 c0 -8 -7 -15 -15 -15 -16
0 -20 12 -8 23 11 12 23 8 23 -8z m418 -22 c4 -29 -44 -41 -67 -18 -15 16 -14
17 8 10 19 -6 23 -4 18 8 -6 16 9 28 28 23 6 -1 11 -12 13 -23z m243 -6 c-16
-16 -26 0 -10 19 9 11 15 12 17 4 2 -6 -1 -17 -7 -23z m-67 -12 c3 -8 1 -15
-4 -15 -6 0 -10 7 -10 15 0 8 2 15 4 15 2 0 6 -7 10 -15z m266 -27 c0 -4 -5
-8 -11 -8 -6 0 -8 -8 -6 -17 4 -12 -7 -28 -29 -46 l-34 -29 0 26 c0 14 5 26
10 26 6 0 10 16 10 36 0 21 4 33 10 29 6 -3 13 1 17 11 6 16 7 15 20 -2 7 -10
13 -21 13 -26z m-670 12 c0 -5 -4 -10 -10 -10 -5 0 -10 5 -10 10 0 6 5 10 10
10 6 0 10 -4 10 -10z m1858 -10 c15 -9 14 -10 -6 -16 -13 -4 -21 -12 -18 -19
6 -16 -21 -55 -39 -55 -7 0 -26 12 -42 28 -28 26 -28 28 -14 54 14 23 20 26
59 22 24 -2 51 -8 60 -14z m-1388 1 c0 -13 -36 -41 -51 -41 -26 0 -34 19 -13
34 16 12 64 17 64 7z m375 -1 c3 -5 1 -10 -4 -10 -6 0 -11 5 -11 10 0 6 2 10
4 10 3 0 8 -4 11 -10z m1475 -10 c-12 -22 -51 -35 -76 -26 -23 9 -1 34 34 39
54 8 53 8 42 -13z m-2420 1 c0 -15 -30 -41 -46 -41 -22 0 -17 14 14 32 32 21
32 21 32 9z m100 -22 c0 -6 -7 -17 -15 -25 -12 -12 -19 -13 -37 -2 -22 12 -22
12 -3 16 11 2 24 8 30 13 12 12 25 11 25 -2z m560 4 c0 -5 -7 -17 -15 -27 -15
-20 -20 -10 -9 18 6 16 24 22 24 9z m1573 0 c-7 -2 -13 -13 -13 -23 0 -18 -36
-47 -46 -37 -7 7 46 67 59 66 8 0 8 -2 0 -6z m-1613 -23 c0 -5 -4 -10 -10 -10
-5 0 -10 5 -10 10 0 6 5 10 10 10 6 0 10 -4 10 -10z m-377 -41 c4 -16 3 -18
-9 -8 -7 6 -11 15 -8 20 8 13 11 11 17 -12z m511 -3 c-3 -9 -10 -13 -16 -10
-5 3 -4 12 3 20 15 18 22 13 13 -10z m-473 -50 c15 -16 10 -29 -6 -16 -8 7
-14 24 -14 39 1 20 2 22 6 6 3 -11 9 -24 14 -29z m346 -18 c-3 -8 -6 -5 -6 6
-1 11 2 17 5 13 3 -3 4 -12 1 -19z m1743 12 c0 -5 -4 -10 -9 -10 -6 0 -13 5
-16 10 -3 6 1 10 9 10 9 0 16 -4 16 -10z m-1632 -42 c2 -28 -1 -36 -17 -41
-16 -4 -19 0 -16 22 1 14 3 34 4 44 2 33 26 12 29 -25z m-416 0 c-15 -15 -26
-4 -18 18 5 13 9 15 18 6 9 -9 9 -15 0 -24z m275 -30 c-3 -8 -6 -5 -6 6 -1 11
2 17 5 13 3 -3 4 -12 1 -19z m120 -60 c-3 -7 -5 -2 -5 12 0 14 2 19 5 13 2 -7
2 -19 0 -25z m-169 -24 c-9 -9 -21 -13 -28 -9 -14 9 5 25 30 25 12 0 12 -3 -2
-16z m-68 -10 c0 -3 -7 -12 -15 -20 -12 -13 -15 -13 -15 -1 0 7 3 17 7 20 8 8
23 9 23 1z m1384 -38 c-4 -19 -13 -26 -29 -26 -13 0 -32 -3 -42 -7 -16 -6 -16
-5 -3 8 27 26 73 59 77 55 2 -2 1 -15 -3 -30z m-1014 14 c0 -5 -4 -10 -10 -10
-5 0 -10 5 -10 10 0 6 5 10 10 10 6 0 10 -4 10 -10z m1060 -16 c0 -8 -7 -14
-15 -14 -17 0 -18 2 -9 24 7 18 24 12 24 -10z m-136 1 c-4 -8 -16 -15 -27 -15
-20 0 -20 0 -1 15 25 19 35 19 28 0z m846 -25 c0 -5 -2 -10 -4 -10 -3 0 -8 5
-11 10 -3 6 -1 10 4 10 6 0 11 -4 11 -10z m-433 -12 c8 22 20 12 15 -13 -2
-14 -8 -25 -13 -25 -5 0 -9 -8 -9 -17 0 -28 -19 -1 -26 37 -7 33 -6 34 11 20
14 -11 19 -12 22 -2z m458 -27 c9 -16 -13 -23 -35 -11 -13 7 -20 7 -20 0 0
-15 -17 -12 -24 5 -4 12 3 15 34 15 21 0 41 -4 45 -9z m-395 -50 c-15 -28 -40
-27 -40 2 0 14 9 26 23 32 26 12 34 -3 17 -34z m-1378 4 c3 -13 1 -22 -3 -19
-9 5 -13 44 -5 44 2 0 6 -11 8 -25z m-465 -11 c-9 -9 -28 6 -21 18 4 6 10 6
17 -1 6 -6 8 -13 4 -17z m1766 -7 c20 -7 23 -27 4 -27 -18 0 -43 21 -51 44 -6
18 -5 19 11 4 10 -8 26 -18 36 -21z m-533 -27 c0 -4 -7 -10 -15 -14 -11 -4
-15 2 -15 21 0 21 2 24 15 13 8 -7 15 -16 15 -20z m673 -11 c-8 -8 -16 -8 -30
0 -16 9 -14 10 12 11 21 0 26 -3 18 -11z m-103 -9 c0 -5 -2 -10 -4 -10 -3 0
-8 5 -11 10 -3 6 -1 10 4 10 6 0 11 -4 11 -10z m-500 -10 c0 -5 -7 -10 -15
-10 -8 0 -15 5 -15 10 0 6 7 10 15 10 8 0 15 -4 15 -10z m540 2 c0 -5 -3 -12
-6 -15 -4 -4 -8 -20 -9 -36 -3 -30 -25 -61 -44 -61 -6 0 -11 5 -11 10 0 6 5
10 10 10 6 0 10 5 10 10 0 6 -5 9 -11 8 -6 -2 -14 3 -16 10 -3 6 3 12 11 12 9
0 19 8 23 18 12 33 43 58 43 34z m-796 -77 c-10 -32 -24 -59 -31 -62 -6 -3 -9
-11 -6 -19 3 -8 0 -14 -5 -14 -6 0 -9 -13 -7 -30 2 -16 -1 -30 -6 -30 -6 0 -7
-5 -3 -11 13 -21 37 18 36 58 -1 35 0 37 13 19 11 -14 15 -47 15 -113 0 -84
-5 -108 -45 -230 -45 -138 -52 -183 -15 -102 11 24 20 37 20 29 0 -32 -40
-193 -59 -234 -10 -25 -17 -46 -15 -49 4 -4 -81 -328 -118 -452 l-22 -70 -13
95 c-7 52 -14 100 -17 105 -4 12 9 111 19 140 6 16 5 17 -4 5 -13 -19 -15 0
-12 115 2 54 -3 95 -14 125 -9 25 -18 70 -21 100 -5 48 -2 59 19 87 38 51 77
78 109 74 37 -3 35 11 -3 43 -50 42 -88 58 -163 67 -92 12 -160 -2 -209 -42
-43 -35 -47 -55 -13 -61 17 -4 23 -1 19 9 -16 40 41 -9 87 -75 l23 -34 -37
-92 c-20 -50 -47 -141 -60 -201 -14 -61 -34 -150 -45 -200 -14 -67 -21 -84
-26 -68 -4 13 -11 20 -16 17 -5 -3 -9 -1 -9 5 0 21 -52 290 -71 371 -16 64
-22 128 -24 255 -2 94 -7 199 -11 236 -5 52 -3 72 11 98 9 18 22 52 30 75 7
22 16 50 20 61 8 20 8 20 -13 1 -25 -22 -37 -17 -28 12 9 26 35 36 53 20 11
-9 14 -24 9 -54 -4 -33 -1 -49 17 -75 25 -36 55 -53 43 -24 -4 13 -2 16 9 11
8 -3 15 -1 15 4 0 18 25 10 55 -18 28 -26 34 -28 115 -25 173 4 202 7 207 20
3 7 15 13 26 13 22 0 87 40 87 53 0 5 5 5 12 1 8 -5 9 -2 5 9 -3 10 -2 17 4
17 5 0 13 8 17 19 8 22 55 81 60 76 2 -2 -5 -29 -14 -60z m836 11 c-20 -25
-28 -19 -27 19 1 35 1 35 21 16 16 -17 17 -23 6 -35z m-1987 29 c-3 -9 -8 -14
-10 -11 -3 3 -2 9 2 15 9 16 15 13 8 -4z m177 -35 c0 -5 -5 -10 -11 -10 -5 0
-7 5 -4 10 3 6 8 10 11 10 2 0 4 -4 4 -10z m-870 -31 c0 -6 -4 -7 -10 -4 -5 3
-10 11 -10 16 0 6 5 7 10 4 6 -3 10 -11 10 -16z m2130 7 c0 -8 6 -16 13 -19 8
-3 5 -12 -12 -28 l-23 -24 12 24 c11 21 10 26 -4 36 -8 7 -13 15 -9 18 11 12
23 8 23 -7z m-1364 -23 c-10 -10 -19 5 -10 18 6 11 8 11 12 0 2 -7 1 -15 -2
-18z m114 23 c0 -3 -4 -8 -10 -11 -5 -3 -10 -1 -10 4 0 6 5 11 10 11 6 0 10
-2 10 -4z m173 -15 c-15 -10 -23 -39 -12 -43 21 -7 -12 -55 -37 -55 -25 0 -33
20 -12 33 7 5 4 10 -10 15 -25 9 -30 29 -7 29 8 0 15 8 15 18 1 16 1 16 14 0
17 -23 22 -23 29 3 4 13 10 18 17 14 7 -4 8 -10 3 -14z m-353 -58 c0 -16 5
-20 20 -16 12 3 20 0 20 -7 0 -6 -9 -14 -20 -17 -28 -7 -25 -19 10 -33 43 -18
38 -34 -9 -26 -27 4 -41 2 -44 -7 -3 -9 -7 -9 -20 2 -12 9 -14 18 -7 31 6 11
5 21 -3 30 -9 10 -9 14 1 17 6 3 12 11 12 19 0 9 5 25 11 36 9 17 13 18 20 7
5 -8 9 -24 9 -36z m1020 27 c0 -5 -4 -10 -10 -10 -5 0 -10 5 -10 10 0 6 5 10
10 10 6 0 10 -4 10 -10z m370 -15 c0 -8 -4 -15 -10 -15 -5 0 -7 7 -4 15 4 8 8
15 10 15 2 0 4 -7 4 -15z m-820 1 c0 -2 -7 -7 -16 -10 -8 -3 -12 -2 -9 4 6 10
25 14 25 6z m-405 -26 c-3 -5 -12 -10 -18 -10 -7 0 -6 4 3 10 19 12 23 12 15
0z m-765 -10 c0 -5 -5 -10 -11 -10 -5 0 -7 5 -4 10 3 6 8 10 11 10 2 0 4 -4 4
-10z m843 -16 c12 -13 -23 -64 -44 -64 -18 0 -19 2 -5 15 8 8 18 24 21 35 6
20 16 25 28 14z m-123 -14 c0 -5 -2 -10 -4 -10 -3 0 -8 5 -11 10 -3 6 -1 10 4
10 6 0 11 -4 11 -10z m17 -52 c-3 -8 -6 -5 -6 6 -1 11 2 17 5 13 3 -3 4 -12 1
-19z m1434 -24 c-5 -16 -10 -21 -10 -12 -1 18 10 51 15 45 2 -1 -1 -16 -5 -33z
m-1476 6 c3 -5 -1 -10 -9 -10 -9 0 -16 5 -16 10 0 6 4 10 9 10 6 0 13 -4 16
-10z m-658 -16 c6 -17 -8 -49 -22 -49 -9 0 -15 45 -8 58 7 12 23 8 30 -9z
m613 -4 c0 -5 -4 -10 -9 -10 -5 0 -16 -3 -25 -6 -9 -3 -16 -1 -16 4 0 9 16 17
43 21 4 0 7 -3 7 -9z m-240 -41 c0 -14 -7 -19 -24 -19 -34 0 -41 16 -15 34 26
18 39 13 39 -15z m160 21 c0 -5 -10 -10 -22 -10 -19 0 -20 2 -8 10 19 13 30
13 30 0z m1505 0 c3 -6 -1 -7 -9 -4 -18 7 -21 14 -7 14 6 0 13 -4 16 -10z
m-1630 -31 c-10 -15 -25 -10 -19 6 4 8 10 12 15 9 5 -3 7 -10 4 -15z m-203 4
c-6 -2 -10 -9 -6 -14 3 -5 0 -9 -5 -9 -6 0 -11 7 -11 15 0 8 8 15 18 14 10 0
12 -3 4 -6z m1703 -13 c19 -7 25 -14 18 -21 -6 -6 -23 -4 -48 7 -28 11 -35 18
-25 24 8 5 17 7 21 5 3 -3 19 -9 34 -15z m149 6 c24 -12 25 -15 10 -27 -12
-10 -17 -10 -23 0 -4 6 -14 11 -21 9 -8 -2 -16 5 -18 15 -4 21 16 22 52 3z
m62 -61 c-6 -17 -56 -16 -56 1 0 8 11 14 26 14 19 0 25 4 20 15 -3 8 -2 23 2
33 5 12 8 8 10 -16 2 -19 1 -40 -2 -47z m-2081 55 c-3 -5 -12 -10 -18 -10 -7
0 -6 4 3 10 19 12 23 12 15 0z m15 -30 c0 -5 -5 -10 -11 -10 -5 0 -7 5 -4 10
3 6 8 10 11 10 2 0 4 -4 4 -10z m1956 -47 c-4 -4 -14 1 -22 11 -22 31 -17 43
8 19 12 -13 18 -26 14 -30z m-1856 33 c0 -3 -4 -8 -10 -11 -5 -3 -10 -1 -10 4
0 6 5 11 10 11 6 0 10 -2 10 -4z m-104 -53 c-5 -12 -10 -13 -18 -5 -8 8 -8 15
3 28 15 18 25 4 15 -23z m2136 9 c-7 -2 -12 -12 -12 -22 0 -10 -4 -22 -10 -25
-5 -3 -10 -4 -10 -1 0 2 -3 11 -6 19 -7 18 24 50 39 40 8 -5 8 -8 -1 -11z
m-2362 -125 c0 -20 -25 1 -28 24 -2 23 -2 23 13 5 8 -11 15 -24 15 -29z m1998
13 c7 -11 17 -20 23 -20 5 0 7 5 4 10 -10 16 8 11 30 -8 39 -33 64 -78 58
-103 -5 -20 -3 -22 8 -11 20 19 39 14 39 -10 0 -24 -20 -63 -20 -40 0 20 -22
14 -51 -14 -28 -27 -49 -25 -49 3 0 8 9 17 20 20 11 3 20 7 20 10 0 2 -9 13
-20 25 -11 12 -20 29 -20 38 0 13 -6 16 -25 12 -14 -2 -23 -8 -20 -12 7 -12
-19 -60 -32 -60 -7 0 -13 11 -13 24 0 27 -15 42 -25 26 -3 -5 -11 -10 -17 -10
-7 0 -9 16 -4 46 8 63 15 71 38 43 l19 -24 -7 29 c-5 19 -2 31 7 37 20 12 23
11 37 -11z m797 10 c3 -5 1 -10 -4 -10 -6 0 -11 5 -11 10 0 6 2 10 4 10 3 0 8
-4 11 -10z m-58 -22 c-3 -8 -6 -5 -6 6 -1 11 2 17 5 13 3 -3 4 -12 1 -19z
m-217 -3 c0 -8 -7 -15 -15 -15 -16 0 -20 12 -8 23 11 12 23 8 23 -8z m-2420
-25 c0 -5 -5 -10 -11 -10 -5 0 -7 5 -4 10 3 6 8 10 11 10 2 0 4 -4 4 -10z
m2040 -179 c0 -24 -18 -37 -31 -24 -13 13 -1 43 17 43 8 0 14 -9 14 -19z
m-2230 -801 c0 -5 -2 -10 -4 -10 -3 0 -8 5 -11 10 -3 6 -1 10 4 10 6 0 11 -4
11 -10z"/>
<path d="M1817 2423 c-20 -20 -1 -30 75 -40 72 -10 84 -15 112 -44 30 -33 31
-33 34 -10 6 40 -39 76 -112 89 -72 14 -100 15 -109 5z"/>
<path d="M1642 2348 c1 -20 -4 -43 -10 -51 -16 -19 -3 -30 14 -12 16 16 18 63
4 85 -7 11 -9 5 -8 -22z"/>
<path d="M1820 2345 c-14 -8 -19 -14 -12 -15 7 0 10 -5 6 -11 -7 -12 13 -29
36 -29 13 0 13 1 0 10 -8 5 -11 12 -8 15 10 10 28 -4 28 -21 0 -15 55 -21 63
-6 2 4 3 2 1 -5 -3 -11 26 -23 60 -23 15 0 17 5 11 27 -8 33 -29 49 -75 57
-19 3 -46 8 -60 11 -14 3 -36 -2 -50 -10z"/>
<path d="M1775 2320 c-3 -5 -1 -10 4 -10 6 0 11 5 11 10 0 6 -2 10 -4 10 -3 0
-8 -4 -11 -10z"/>
<path d="M1661 2260 c-13 -28 -33 -57 -44 -65 -15 -10 -18 -20 -12 -45 5 -23
4 -30 -4 -26 -15 10 -9 -30 7 -46 9 -9 17 -10 30 -1 10 6 32 9 48 7 26 -4 27
-3 7 5 -26 12 -67 51 -53 51 6 0 10 7 10 15 0 8 9 35 21 59 11 25 19 56 17 71
-3 24 -5 21 -27 -25z"/>
<path d="M2101 2198 c0 -16 3 -28 7 -28 14 0 33 -48 22 -55 -6 -4 -10 2 -10
12 0 15 -2 15 -9 3 -6 -8 -7 -18 -5 -22 3 -4 -1 -5 -8 -3 -9 4 -14 -2 -14 -14
0 -24 22 -21 52 8 31 30 30 56 0 77 -14 8 -27 23 -29 32 -3 10 -5 5 -6 -10z"/>
<path d="M1760 2171 c0 -5 8 -17 18 -27 16 -17 17 -17 20 1 2 9 -2 21 -10 26
-17 11 -28 11 -28 0z"/>
<path d="M2091 2134 c0 -11 3 -14 6 -6 3 7 2 16 -1 19 -3 4 -6 -2 -5 -13z"/>
<path d="M1745 2100 c-3 -5 0 -10 9 -10 8 0 16 -6 18 -12 3 -8 9 -4 17 10 11
20 10 22 -13 22 -14 0 -28 -4 -31 -10z"/>
<path d="M2077 2043 c-4 -3 -7 -11 -7 -17 0 -6 5 -5 12 2 6 6 9 14 7 17 -3 3
-9 2 -12 -2z"/>
<path d="M1614 2008 c-3 -4 9 -8 26 -8 17 0 29 4 25 9 -6 11 -44 10 -51 -1z"/>
<path d="M1720 2010 c0 -7 31 -24 64 -35 19 -6 19 -5 2 14 -17 19 -66 35 -66
21z"/>
<path d="M1567 1954 c-4 -4 -2 -13 3 -20 6 -6 9 -17 8 -24 -2 -7 7 -16 20 -21
13 -5 22 -5 22 1 0 6 -7 10 -16 10 -9 0 -14 6 -11 13 2 6 10 11 16 9 7 -1 46
-5 87 -9 57 -5 74 -9 70 -20 -8 -21 14 -15 35 10 23 28 23 33 2 42 -25 10
-227 17 -236 9z m140 -20 c-3 -3 -12 -4 -19 -1 -8 3 -5 6 6 6 11 1 17 -2 13
-5z"/>
<path d="M1820 1952 c0 -14 39 -46 47 -39 3 4 -2 16 -12 27 -19 21 -35 26 -35
12z"/>
<path d="M1460 1930 c0 -5 5 -10 10 -10 6 0 10 5 10 10 0 6 -4 10 -10 10 -5 0
-10 -4 -10 -10z"/>
<path d="M1638 1856 c3 -6 7 -15 8 -21 0 -5 2 -16 2 -22 3 -18 41 -16 48 2 4
8 1 21 -5 29 -14 17 -64 28 -53 12z"/>
<path d="M1836 1855 c-3 -8 -1 -15 4 -15 6 0 10 7 10 15 0 8 -2 15 -4 15 -2 0
-6 -7 -10 -15z"/>
<path d="M1290 1391 c0 -4 9 -16 20 -26 11 -10 20 -14 20 -9 0 5 -9 17 -20 27
-11 9 -20 13 -20 8z"/>
<path d="M1480 1141 c0 -6 5 -13 10 -16 6 -3 10 1 10 9 0 9 -4 16 -10 16 -5 0
-10 -4 -10 -9z"/>
<path d="M2190 1180 c0 -5 5 -10 11 -10 5 0 7 5 4 10 -3 6 -8 10 -11 10 -2 0
-4 -4 -4 -10z"/>
<path d="M2060 1161 c0 -6 9 -9 19 -8 11 0 17 5 15 9 -7 11 -34 10 -34 -1z"/>
<path d="M1420 3140 c0 -18 51 -32 66 -19 24 20 15 29 -26 29 -22 0 -40 -5
-40 -10z"/>
<path d="M2 2940 c0 -19 2 -27 5 -17 2 9 2 25 0 35 -3 9 -5 1 -5 -18z"/>
<path d="M3146 432 c-2 -4 -1 -14 5 -22 7 -12 9 -10 9 8 0 23 -5 28 -14 14z"/>
</g>
</svg>
